<?xml version="1.0" standalone="no"?>
<!DOCTYPE svg PUBLIC "-//W3C//DTD SVG 20010904//EN"
 "http://www.w3.org/TR/2001/REC-SVG-20010904/DTD/svg10.dtd">
<svg version="1.0" xmlns="http://www.w3.org/2000/svg"
 width="900.000000pt" height="900.000000pt" viewBox="0 0 900.000000 900.000000"
 preserveAspectRatio="xMidYMid meet">
<metadata>
Created by potrace 1.10, written by Peter Selinger 2001-2011
</metadata>
<g transform="translate(0.000000,900.000000) scale(0.100000,-0.100000)"
fill="currentColor">
<path d="M4456 6515 c-15 -14 -59 -51 -99 -82 -39 -32 -81 -66 -92 -77 -11
-10 -51 -44 -90 -75 -38 -31 -76 -63 -85 -71 -9 -8 -47 -42 -84 -75 l-68 -60
4 -277 c3 -244 6 -279 21 -296 9 -10 17 -26 17 -35 0 -9 5 -17 10 -17 6 0 13
-8 17 -17 8 -27 42 -94 63 -128 20 -32 64 -112 87 -157 8 -16 19 -28 24 -28 5
0 9 -8 9 -18 0 -10 5 -23 11 -29 14 -14 35 -50 50 -85 6 -16 15 -28 20 -28 5
0 9 -7 9 -14 0 -8 14 -35 30 -59 17 -25 30 -50 30 -55 0 -6 6 -17 13 -24 17
-20 47 -77 47 -92 0 -30 36 -46 104 -46 58 0 70 3 87 23 10 12 18 30 19 40 0
9 4 17 10 17 5 0 13 12 16 27 4 15 13 34 21 41 7 7 13 20 13 28 0 8 3 14 8 14
4 0 18 24 32 53 13 28 28 54 32 57 4 3 12 17 18 30 5 14 19 39 30 55 10 17 29
50 42 75 13 25 26 47 29 50 6 5 13 17 59 107 14 26 28 50 31 53 4 3 19 30 34
60 35 72 48 94 64 114 11 13 15 79 19 285 l5 267 -25 25 c-50 48 -114 105
-163 144 -27 22 -55 45 -61 50 -32 29 -74 64 -119 100 -48 39 -96 79 -119 100
-34 32 -71 55 -86 55 -9 0 -29 -11 -44 -25z m24 -332 c0 -159 3 -298 6 -310 5
-16 1 -25 -12 -30 -10 -4 -19 -2 -21 4 -2 6 -30 24 -61 39 -31 16 -59 32 -62
36 -3 3 -18 10 -33 13 -15 4 -27 11 -27 15 0 5 -13 11 -30 15 -16 4 -30 11
-30 16 0 5 -5 9 -11 9 -22 0 -179 81 -179 93 0 7 24 29 53 50 28 20 71 55 93
76 23 21 68 58 100 83 33 25 91 75 129 112 39 36 73 65 78 66 4 0 7 -129 7
-287z m85 265 c12 -13 50 -48 84 -78 79 -69 79 -69 121 -104 52 -42 118 -97
154 -128 17 -15 39 -30 49 -34 30 -10 18 -32 -30 -54 -131 -61 -337 -164 -369
-186 -20 -14 -39 -23 -42 -20 -3 4 -6 550 -2 624 0 8 16 -1 35 -20z m453 -872
c-4 -5 -14 -3 -24 5 -25 20 -56 38 -96 54 -7 3 -20 9 -28 14 -44 26 -259 127
-280 131 -14 3 -25 12 -25 20 0 8 11 20 25 26 14 7 115 56 225 111 l200 98 5
-225 c3 -124 2 -229 -2 -234z m-885 387 c179 -90 249 -123 265 -123 17 0 54
-39 47 -50 -4 -6 -14 -10 -23 -10 -15 0 -124 -48 -162 -71 -8 -5 -22 -12 -30
-15 -8 -4 -66 -31 -128 -62 -61 -30 -113 -53 -115 -51 -3 6 4 449 8 449 2 0
64 -30 138 -67z m407 -204 c3 -4 17 -13 30 -18 14 -6 34 -16 45 -23 36 -20
111 -58 145 -72 8 -3 22 -10 30 -15 8 -5 22 -12 30 -15 8 -3 22 -10 30 -15 8
-5 22 -12 30 -15 14 -6 26 -12 68 -36 9 -6 25 -13 35 -17 19 -6 15 -36 -9 -64
-8 -8 -14 -20 -14 -26 0 -6 -7 -16 -15 -23 -8 -7 -15 -20 -15 -30 0 -10 -7
-23 -15 -30 -8 -7 -15 -20 -15 -30 0 -10 -7 -20 -15 -24 -8 -3 -15 -14 -15
-24 0 -11 -7 -25 -15 -32 -8 -7 -15 -18 -15 -25 0 -7 -7 -18 -15 -25 -8 -7
-15 -20 -15 -30 0 -10 -7 -20 -15 -24 -8 -3 -15 -15 -15 -26 0 -11 -7 -23 -15
-26 -8 -4 -15 -14 -15 -24 0 -10 -7 -23 -15 -30 -8 -7 -15 -21 -15 -32 0 -10
-7 -21 -15 -24 -8 -4 -15 -14 -15 -24 0 -10 -7 -23 -15 -30 -8 -7 -15 -21 -15
-31 0 -11 -4 -19 -10 -19 -5 0 -12 -11 -16 -25 -3 -13 -12 -29 -20 -36 -8 -6
-14 -20 -14 -30 0 -11 -5 -19 -10 -19 -6 0 -15 -11 -20 -25 -6 -17 -17 -25
-34 -25 -13 0 -37 -3 -55 -6 -26 -5 -32 -3 -41 17 -6 13 -19 38 -30 54 -11 17
-22 37 -26 45 -3 8 -10 22 -15 30 -5 8 -13 25 -18 37 -6 11 -15 24 -20 28 -6
3 -11 14 -11 24 0 10 -7 24 -15 31 -8 7 -15 21 -15 32 0 10 -7 21 -15 24 -8 4
-15 14 -15 24 0 10 -7 23 -15 30 -8 7 -15 21 -15 31 0 10 -5 21 -11 24 -5 4
-15 17 -20 28 -15 34 -36 68 -48 80 -6 6 -11 19 -11 28 0 9 -7 22 -15 29 -8 7
-15 20 -15 30 0 10 -7 20 -15 24 -8 3 -15 14 -15 24 0 11 -7 25 -15 32 -8 7
-15 21 -15 31 0 11 -4 19 -10 19 -5 0 -12 11 -16 24 -7 28 25 66 55 66 10 0
24 7 31 15 7 8 20 15 30 15 10 0 23 7 30 15 7 8 20 15 30 15 10 0 23 7 30 15
7 8 20 15 30 15 10 0 23 7 30 15 7 8 20 15 30 15 10 0 23 7 30 15 7 8 20 15
30 15 10 0 23 7 30 15 7 8 17 15 22 15 5 0 21 9 35 20 25 20 60 19 73 -1z"/>
<path d="M4471 5601 c-11 -27 -21 -56 -21 -63 0 -7 -7 -22 -15 -32 -8 -11 -15
-31 -15 -45 0 -14 -7 -35 -15 -45 -8 -11 -15 -31 -15 -45 0 -14 -7 -35 -15
-45 -20 -26 -19 -142 0 -176 8 -14 14 -39 15 -56 0 -16 7 -39 15 -50 8 -10 15
-30 15 -44 0 -14 6 -37 14 -52 8 -15 17 -42 21 -60 10 -46 33 -88 48 -88 13 0
57 88 57 114 0 8 7 27 15 42 8 16 15 41 15 55 0 14 7 34 15 45 8 10 15 35 15
54 0 19 7 44 15 54 20 26 20 126 0 152 -8 10 -15 31 -15 45 0 14 -7 34 -15 45
-8 10 -15 31 -15 45 0 14 -7 34 -15 45 -8 10 -15 26 -15 34 0 8 -6 27 -14 41
-7 14 -16 37 -20 52 -10 41 -31 32 -55 -22z m57 -98 c7 -27 17 -64 21 -83 12
-47 30 -98 49 -138 13 -28 14 -38 3 -65 -7 -18 -16 -48 -20 -67 -4 -19 -13
-51 -19 -70 -26 -85 -42 -148 -42 -168 0 -12 -6 -22 -13 -22 -12 0 -25 39 -47
135 -15 70 -33 129 -46 162 -18 39 -17 71 1 103 8 14 14 34 15 45 0 11 7 33
15 49 8 15 15 35 15 44 0 28 35 122 45 122 6 0 16 -21 23 -47z"/>
<path d="M5370 5684 c-96 -58 -184 -114 -196 -125 -11 -10 -24 -19 -30 -19
-17 -1 -49 -35 -69 -75 -11 -22 -26 -46 -32 -53 -7 -7 -13 -20 -13 -28 0 -8
-4 -14 -9 -14 -5 0 -14 -12 -20 -27 -6 -16 -25 -50 -41 -78 -17 -27 -36 -61
-43 -75 -6 -14 -14 -27 -17 -30 -3 -3 -15 -23 -27 -45 -43 -83 -58 -110 -65
-115 -4 -3 -12 -17 -18 -30 -5 -14 -24 -47 -41 -75 -16 -27 -35 -61 -42 -75
-6 -14 -14 -27 -18 -30 -6 -5 -31 -50 -48 -87 -6 -13 -15 -23 -21 -23 -16 0
-12 -56 5 -70 8 -7 15 -18 15 -24 1 -6 11 -24 24 -40 l24 -29 209 7 c114 4
253 11 308 16 55 5 187 9 293 10 112 0 192 4 192 9 0 5 9 13 21 16 26 8 369
214 387 232 7 7 20 13 27 13 9 0 16 15 20 38 3 20 10 51 15 68 6 16 13 59 16
95 3 35 10 78 15 94 5 17 14 66 19 110 27 217 32 252 39 275 10 33 -6 70 -31
70 -10 0 -35 9 -55 20 -21 11 -43 20 -49 20 -7 0 -25 7 -40 15 -16 8 -36 15
-45 15 -9 0 -30 7 -45 15 -16 8 -36 15 -45 15 -9 0 -30 7 -45 15 -16 8 -36 15
-45 15 -9 0 -30 7 -45 15 -16 8 -36 15 -45 15 -9 0 -30 7 -45 15 -16 8 -36 15
-45 15 -9 0 -30 7 -45 15 -16 8 -40 15 -54 15 -14 -1 -104 -48 -200 -106z
m280 33 c19 -7 45 -18 57 -25 12 -7 32 -12 45 -12 13 0 32 -7 42 -15 11 -8 31
-15 45 -15 14 0 35 -7 45 -15 11 -8 27 -15 37 -15 9 0 30 -7 45 -15 16 -8 36
-15 45 -15 9 0 30 -7 45 -15 16 -8 41 -15 55 -15 23 0 59 -25 48 -34 -21 -16
-129 -76 -138 -76 -6 0 -11 -4 -11 -9 0 -5 -11 -12 -25 -15 -14 -4 -25 -11
-25 -16 0 -6 -6 -10 -14 -10 -8 0 -21 -6 -28 -13 -7 -8 -32 -25 -55 -38 -107
-62 -181 -109 -193 -123 -7 -9 -19 -16 -26 -16 -11 0 -14 22 -14 104 0 58 -4
115 -9 128 -11 31 -24 288 -14 288 4 0 24 -6 43 -13z m-105 -14 c3 -10 10 -88
15 -173 5 -85 17 -188 27 -227 24 -101 13 -109 -65 -49 -33 25 -63 46 -65 46
-6 0 -106 64 -122 78 -5 4 -17 11 -25 15 -8 4 -24 13 -35 20 -101 63 -124 80
-120 86 2 4 33 22 67 40 35 18 75 40 89 49 15 9 51 31 80 49 30 17 69 43 88
57 41 31 56 32 66 9z m649 -266 c-3 -23 -12 -61 -20 -85 -8 -23 -14 -68 -14
-98 0 -30 -5 -65 -11 -76 -6 -12 -15 -60 -20 -107 -9 -87 -17 -146 -25 -169
-2 -8 -22 0 -61 26 -32 22 -94 62 -138 90 -44 28 -84 55 -90 60 -5 4 -23 15
-40 23 -119 61 -117 60 -99 80 9 10 26 21 36 25 27 8 372 216 376 226 2 4 10
8 17 8 8 0 20 6 27 13 20 20 52 36 60 31 5 -3 5 -24 2 -47z m-1034 -12 c7 -8
17 -15 22 -15 8 0 67 -38 78 -51 3 -3 12 -8 20 -12 18 -8 39 -22 93 -59 22
-16 46 -28 54 -28 7 0 13 -4 13 -9 0 -10 21 -23 102 -63 l48 -23 0 -95 c0 -52
6 -118 14 -147 8 -29 16 -114 17 -190 l4 -138 -300 -6 c-165 -4 -327 -11 -360
-18 -33 -6 -101 -11 -152 -11 l-91 0 -29 48 c-32 51 -31 63 17 137 11 17 31
53 45 80 14 28 35 64 45 80 11 17 24 39 30 50 23 42 38 67 49 78 6 6 11 19 11
29 0 10 4 18 9 18 5 0 14 12 20 28 15 35 36 71 50 85 6 6 11 19 11 29 0 10 4
18 10 18 5 0 12 11 16 24 3 14 12 27 20 30 8 3 14 14 14 24 0 10 5 23 11 29
14 14 36 52 45 76 8 21 47 22 64 2z m556 -339 c47 -35 58 -43 132 -91 30 -19
57 -35 62 -35 5 0 10 -4 12 -8 2 -5 36 -28 76 -51 67 -40 92 -71 58 -71 -8 0
-21 -6 -28 -12 -7 -7 -35 -24 -61 -38 -26 -13 -47 -28 -47 -32 0 -5 -6 -8 -13
-8 -8 0 -57 -29 -111 -64 -60 -40 -99 -60 -101 -53 -13 38 -26 147 -31 252 -4
66 -13 146 -20 178 -22 87 -8 93 72 33z"/>
<path d="M5405 5093 c-16 -3 -34 -9 -39 -14 -6 -5 -29 -9 -53 -9 -24 0 -60 -7
-80 -15 -19 -8 -50 -15 -67 -15 -17 0 -44 -7 -60 -15 -15 -8 -33 -15 -39 -15
-11 0 -67 -56 -180 -184 -34 -38 -77 -85 -94 -105 -18 -20 -33 -46 -33 -58 0
-19 5 -23 34 -23 19 0 38 5 41 10 3 6 25 10 49 10 23 0 51 7 62 15 10 8 35 15
54 15 19 0 48 7 64 15 15 8 38 15 51 15 42 0 110 39 150 85 21 26 48 57 60 69
35 40 60 70 85 106 14 19 36 48 50 63 14 16 25 34 25 40 0 13 -33 17 -80 10z
m-15 -73 c0 -11 -4 -20 -10 -20 -5 0 -50 -46 -99 -102 -92 -106 -112 -119
-206 -137 -22 -4 -50 -13 -62 -19 -12 -7 -32 -12 -45 -12 -13 0 -33 -7 -44
-15 -20 -15 -84 -21 -84 -7 1 18 247 260 270 265 50 11 116 29 145 39 28 10
93 24 123 27 6 0 12 -8 12 -19z"/>
<path d="M3366 5741 c-3 -5 -22 -12 -41 -15 -19 -4 -35 -11 -35 -16 0 -6 -10
-10 -23 -10 -13 0 -32 -7 -43 -15 -10 -8 -26 -15 -34 -15 -8 0 -27 -6 -42 -14
-15 -8 -40 -17 -57 -21 -17 -4 -31 -11 -31 -16 0 -5 -10 -9 -23 -9 -13 0 -32
-7 -43 -15 -10 -8 -25 -15 -32 -15 -7 0 -34 -9 -60 -21 -26 -11 -56 -24 -67
-29 -99 -42 -115 -52 -115 -75 0 -13 4 -26 9 -29 4 -3 11 -34 14 -68 4 -35 11
-76 16 -93 10 -31 25 -104 42 -215 6 -36 15 -69 20 -74 5 -6 9 -27 9 -47 0
-34 23 -125 39 -158 4 -8 23 -22 42 -32 18 -10 39 -22 44 -26 6 -4 33 -19 60
-33 28 -14 52 -28 55 -31 3 -3 32 -19 65 -36 33 -16 93 -47 133 -68 l73 -37
497 7 c465 7 498 8 515 26 9 10 17 25 17 32 0 8 7 20 15 27 26 21 18 75 -15
112 -16 18 -30 36 -30 41 0 8 -39 68 -51 77 -4 3 -9 15 -13 28 -4 12 -12 22
-17 22 -5 0 -9 6 -9 13 0 8 -13 32 -28 53 -16 21 -31 46 -35 54 -4 8 -16 29
-27 45 -11 17 -23 37 -27 45 -4 8 -25 42 -48 75 -23 34 -44 67 -48 75 -4 8
-16 29 -27 45 -11 17 -23 37 -27 45 -3 8 -19 31 -35 51 -15 20 -28 40 -28 44
0 3 -12 22 -26 41 -25 32 -40 43 -104 76 -14 7 -27 15 -30 18 -3 3 -27 16 -55
30 -27 14 -52 28 -55 31 -3 3 -27 16 -55 30 -27 13 -52 27 -55 30 -3 3 -27 16
-55 30 -27 13 -51 27 -53 32 -5 10 -60 9 -66 -2z m6 -61 c2 -5 -1 -63 -5 -127
-4 -65 -10 -176 -12 -247 -2 -71 -6 -131 -9 -133 -5 -5 -48 15 -56 27 -3 3
-23 15 -45 27 -73 38 -110 58 -115 63 -3 3 -27 16 -55 30 -27 14 -52 27 -55
30 -3 3 -49 28 -103 55 -54 27 -101 53 -103 56 -5 9 53 39 76 39 9 0 25 7 36
15 10 8 28 15 40 15 11 0 29 7 40 15 10 8 29 15 40 15 12 0 27 7 34 15 7 8 22
15 34 15 12 0 31 7 42 15 10 8 27 15 37 15 11 0 31 6 45 14 49 25 117 56 124
56 3 0 8 -4 10 -10z m91 -10 c14 -11 30 -20 35 -20 5 0 15 -7 22 -15 7 -8 21
-15 31 -15 11 0 19 -4 19 -10 0 -5 11 -12 25 -16 13 -3 29 -12 36 -20 6 -8 20
-14 30 -14 11 0 19 -4 19 -8 0 -4 26 -20 59 -35 90 -41 91 -47 19 -96 -91 -61
-183 -125 -265 -187 -97 -72 -115 -72 -94 4 7 24 22 330 21 440 0 17 14 15 43
-8z m-563 -313 c14 -6 27 -14 30 -17 3 -3 27 -16 55 -30 27 -14 77 -41 110
-60 65 -38 179 -95 208 -104 23 -7 19 -35 -8 -50 -21 -12 -167 -110 -201 -135
-12 -9 -32 -23 -44 -31 -12 -8 -28 -20 -34 -25 -6 -6 -28 -21 -48 -35 -21 -14
-38 -28 -38 -32 0 -16 -28 -8 -35 10 -4 9 -11 50 -16 91 -4 40 -12 78 -17 85
-5 6 -12 39 -15 74 -3 34 -9 68 -15 75 -5 7 -12 38 -15 70 -3 32 -10 64 -15
70 -12 15 -24 92 -15 100 3 4 24 -5 47 -19 23 -14 52 -30 66 -37z m988 27 c12
-20 22 -40 22 -45 0 -5 4 -9 9 -9 9 0 28 -29 50 -77 6 -13 15 -23 20 -23 5 0
11 -8 15 -17 3 -10 15 -31 26 -48 11 -16 23 -37 27 -45 3 -8 18 -31 33 -50 15
-19 30 -42 33 -50 9 -20 29 -51 45 -68 6 -7 12 -20 12 -27 0 -8 6 -18 13 -22
14 -9 32 -37 47 -70 5 -13 14 -23 20 -23 5 0 10 -5 10 -11 0 -6 12 -26 26 -44
14 -19 34 -50 44 -69 15 -30 15 -37 4 -47 -8 -6 -14 -17 -14 -23 -1 -6 -9 -21
-19 -33 l-19 -23 -452 0 -452 0 4 268 c5 270 11 312 45 312 6 0 18 6 25 13 18
16 48 35 73 46 11 5 33 21 48 35 15 14 30 26 33 26 3 0 32 20 64 45 32 25 61
45 65 45 3 0 27 16 52 35 25 19 51 35 57 35 6 -1 21 -17 34 -36z m-544 -558
c-5 -134 -12 -247 -16 -251 -8 -8 -68 16 -68 26 0 4 -12 12 -27 18 -16 7 -55
27 -88 46 -33 19 -95 51 -137 72 -45 23 -74 43 -70 49 4 5 36 30 72 55 70 47
83 57 105 77 7 6 17 12 20 12 11 0 179 132 189 147 6 11 11 12 19 4 7 -7 7
-85 1 -255z"/>
<path d="M3517 5058 c-16 -12 -13 -17 25 -60 24 -26 75 -82 113 -124 105 -116
147 -154 170 -154 11 -1 31 -7 45 -15 14 -8 44 -14 66 -15 23 0 55 -7 70 -15
16 -8 48 -15 72 -15 24 0 51 -4 60 -9 25 -12 98 -20 112 -11 22 14 1 44 -108
155 -204 207 -214 215 -270 215 -27 0 -66 7 -85 15 -20 8 -62 15 -92 15 -31 0
-64 4 -73 9 -33 17 -88 21 -105 9z m218 -73 c22 -7 65 -16 96 -19 75 -8 93
-19 181 -106 41 -41 91 -89 110 -106 32 -28 58 -63 58 -78 0 -3 -12 2 -27 10
-16 7 -37 14 -48 14 -11 0 -40 6 -65 14 -60 19 -126 36 -177 45 -37 7 -56 22
-148 117 -57 60 -105 114 -105 121 0 14 67 8 125 -12z"/>
<path d="M5649 4496 c-2 -2 -220 -6 -483 -8 l-480 -3 -23 -25 c-13 -14 -23
-32 -23 -41 0 -9 -7 -22 -15 -29 -8 -7 -15 -25 -15 -40 0 -16 7 -30 15 -34 8
-3 15 -10 15 -16 0 -5 8 -19 18 -29 26 -30 37 -45 45 -61 4 -8 16 -28 27 -45
11 -16 25 -40 31 -52 7 -13 16 -23 21 -23 4 0 8 -6 8 -14 0 -8 6 -21 13 -28 7
-7 24 -31 37 -53 13 -22 30 -46 37 -53 7 -7 13 -20 13 -28 0 -8 5 -14 10 -14
6 0 10 -4 10 -9 0 -8 34 -63 80 -131 53 -78 130 -201 130 -208 0 -13 45 -52
60 -52 7 0 18 -6 24 -14 11 -14 109 -70 216 -123 30 -15 57 -30 60 -33 12 -12
136 -70 151 -70 14 0 56 17 99 39 9 5 30 12 48 16 18 3 32 11 32 16 0 5 10 9
23 9 12 0 31 6 42 14 11 7 35 17 53 21 17 3 32 11 32 16 0 5 9 9 21 9 11 0 33
6 47 13 26 13 71 33 137 62 17 7 54 23 83 36 l53 24 -6 45 c-3 25 -10 56 -15
70 -5 14 -11 51 -15 82 -4 32 -11 60 -16 63 -5 4 -9 23 -9 44 0 21 -6 61 -14
87 -14 48 -28 110 -46 210 -16 84 -35 118 -77 140 -21 10 -40 22 -43 25 -3 3
-27 16 -55 30 -27 13 -52 26 -55 29 -3 3 -41 23 -85 45 -44 22 -81 43 -83 48
-2 4 -10 7 -18 7 -8 0 -31 9 -51 20 -37 20 -55 24 -64 16z m-29 -323 l0 -278
-76 -50 c-42 -27 -83 -54 -92 -60 -19 -12 -252 -181 -270 -196 -10 -8 -18 -6
-33 7 -10 9 -19 21 -19 27 0 5 -13 26 -30 47 -16 21 -30 41 -30 45 0 4 -13 24
-30 45 -16 21 -30 43 -30 49 0 7 -6 14 -14 17 -8 3 -17 13 -20 22 -3 9 -15 31
-26 47 -11 17 -23 38 -26 48 -4 9 -10 17 -15 17 -5 0 -14 10 -20 23 -15 34
-36 69 -46 76 -11 8 -32 42 -39 64 -4 9 -10 17 -15 17 -5 0 -14 10 -19 23 -6
12 -28 47 -50 77 -54 75 -58 100 -26 154 14 25 34 47 43 49 10 3 213 5 451 6
l432 1 0 -277z m134 240 c28 -16 53 -31 56 -35 3 -4 17 -12 30 -17 25 -11 35
-16 75 -39 11 -7 27 -15 35 -18 8 -3 20 -8 25 -10 6 -2 17 -8 25 -13 8 -5 32
-17 53 -27 l38 -19 -24 -20 c-13 -11 -34 -27 -47 -35 -13 -8 -60 -42 -106 -75
-45 -33 -92 -67 -104 -75 -27 -18 -87 -69 -112 -92 -10 -10 -22 -18 -28 -18
-5 0 -10 8 -10 18 0 50 22 479 25 490 6 17 10 16 69 -15z m376 -280 c1 -27 7
-66 15 -88 8 -22 15 -55 15 -73 0 -18 7 -49 15 -69 8 -19 15 -51 15 -69 0 -18
6 -51 14 -71 8 -21 17 -59 21 -85 3 -26 10 -50 16 -53 14 -9 11 -25 -6 -25 -9
0 -26 7 -38 14 -29 20 -139 79 -207 113 -30 15 -57 30 -60 33 -7 7 -191 97
-213 104 -23 7 -19 35 8 50 11 6 22 13 25 16 3 3 23 17 45 32 58 39 158 109
191 136 129 100 144 104 144 35z m-302 -373 c6 0 12 -3 14 -7 2 -5 39 -26 83
-48 44 -22 82 -42 85 -45 3 -3 43 -24 90 -47 47 -23 94 -49 105 -57 19 -15 19
-15 -13 -22 -18 -4 -35 -11 -38 -15 -3 -5 -14 -9 -26 -9 -11 0 -32 -6 -46 -13
-15 -8 -42 -21 -60 -30 -19 -9 -40 -17 -49 -17 -8 0 -27 -6 -41 -13 -53 -27
-98 -45 -124 -51 -16 -4 -28 -11 -28 -16 0 -6 -11 -10 -24 -10 -13 0 -29 -7
-36 -16 -7 -8 -24 -14 -38 -12 l-24 3 3 140 c2 77 3 188 1 248 -2 59 0 112 3
117 3 5 39 -11 79 -35 40 -25 78 -45 84 -45z m-205 19 c0 -30 -7 -143 -14
-251 -11 -175 -15 -198 -30 -198 -9 0 -22 7 -29 15 -7 8 -18 15 -25 15 -7 0
-18 7 -25 15 -7 8 -21 15 -31 15 -11 0 -19 4 -19 9 0 5 -12 14 -27 20 -16 6
-35 15 -43 20 -8 5 -22 12 -30 15 -8 3 -22 10 -30 15 -8 5 -36 19 -62 31 -27
12 -48 28 -48 35 0 7 26 30 57 51 32 22 62 42 68 47 5 4 69 52 140 106 72 54
135 98 140 96 6 -1 9 -26 8 -56z"/>
<path d="M4760 4345 c0 -19 38 -63 161 -185 158 -156 163 -160 204 -160 23 0
59 -7 78 -15 20 -8 64 -15 97 -15 34 0 69 -4 78 -9 9 -5 42 -10 72 -12 76 -5
73 9 -25 116 -164 178 -214 225 -244 225 -16 0 -42 7 -57 15 -16 8 -47 15 -69
15 -22 0 -58 7 -80 15 -22 8 -63 14 -92 15 -28 0 -55 5 -58 10 -3 6 -19 10
-36 10 -24 0 -29 -4 -29 -25z m183 -50 c20 -8 49 -15 65 -15 16 0 46 -7 65
-15 20 -8 53 -15 74 -15 36 0 47 -9 157 -119 86 -86 117 -124 112 -136 -5 -15
-8 -15 -28 -1 -12 9 -37 16 -54 16 -17 0 -51 7 -74 15 -23 8 -66 15 -95 15
-51 0 -55 2 -118 63 -132 126 -189 177 -198 177 -5 0 -9 7 -9 15 0 10 10 15
34 15 18 0 50 -7 69 -15z"/>
<path d="M4280 4470 c-14 -4 -101 -9 -195 -10 -93 0 -219 -5 -280 -11 -60 -5
-191 -12 -290 -16 -177 -6 -180 -6 -219 -34 -21 -16 -45 -29 -52 -29 -7 0 -14
-4 -16 -8 -1 -5 -43 -32 -93 -62 -49 -30 -91 -57 -93 -62 -2 -4 -10 -8 -17 -8
-8 0 -20 -6 -27 -13 -7 -7 -34 -25 -59 -40 -56 -33 -67 -52 -79 -147 -5 -41
-14 -115 -20 -165 -6 -49 -16 -111 -21 -136 -6 -25 -14 -88 -20 -140 -5 -52
-12 -112 -15 -134 -5 -39 -4 -41 33 -57 21 -9 51 -20 67 -24 16 -4 41 -13 55
-20 14 -8 33 -14 42 -14 9 0 30 -7 45 -15 16 -8 39 -15 51 -15 12 0 24 -4 27
-9 4 -5 24 -12 47 -16 22 -4 53 -13 67 -21 15 -8 34 -14 43 -14 9 0 30 -7 45
-15 16 -8 39 -15 51 -15 12 0 24 -4 28 -9 3 -6 26 -13 52 -17 38 -6 54 -3 90
17 23 13 43 27 43 31 0 5 6 8 14 8 8 0 21 6 28 13 7 7 54 37 103 67 50 29 92
57 95 60 3 3 35 26 73 50 40 27 67 51 67 62 0 9 4 19 9 23 6 3 16 18 24 33 7
15 29 54 47 87 18 33 51 94 73 135 23 41 56 102 74 135 17 33 44 84 58 112 15
29 30 55 36 58 5 4 9 15 9 26 0 10 4 19 8 19 4 0 15 15 23 33 22 48 63 121 71
127 14 11 27 60 21 77 -7 20 -62 94 -78 105 -11 9 -11 9 -45 -2z m39 -87 c31
-38 39 -67 21 -78 -5 -3 -10 -15 -10 -26 0 -10 -4 -19 -9 -19 -5 0 -14 -12
-20 -27 -6 -16 -20 -41 -31 -58 -11 -16 -24 -39 -30 -50 -6 -11 -19 -33 -30
-50 -11 -16 -22 -37 -26 -45 -3 -8 -10 -22 -15 -30 -5 -8 -14 -27 -20 -42 -6
-16 -15 -28 -20 -28 -5 0 -9 -9 -9 -19 0 -11 -5 -23 -11 -26 -5 -4 -15 -17
-20 -28 -15 -34 -36 -68 -48 -80 -6 -6 -11 -17 -11 -23 0 -7 -13 -33 -30 -57
-16 -25 -30 -50 -30 -55 0 -6 -6 -17 -13 -24 -7 -7 -18 -25 -24 -40 -14 -31
-29 -34 -64 -15 -28 14 -82 49 -89 57 -7 7 -40 28 -65 40 -11 6 -33 19 -50 30
-16 11 -39 24 -50 30 -11 6 -33 19 -50 30 -16 10 -51 29 -76 41 l-45 22 -12
82 c-7 44 -12 120 -12 168 0 47 -7 112 -15 144 -16 62 -20 140 -7 160 6 9 81
15 257 23 138 5 275 14 305 18 30 5 117 10 192 11 l137 1 30 -37z m-975 -69
c3 -26 6 -79 6 -118 0 -39 4 -87 10 -106 5 -19 13 -75 18 -125 11 -110 2 -130
-44 -92 -39 32 -177 121 -291 188 -51 30 -91 58 -90 64 3 9 38 33 82 55 11 6
34 19 50 30 17 11 37 23 45 27 23 10 75 47 78 56 2 4 9 7 15 7 7 0 28 14 47
30 51 43 66 39 74 -16z m-390 -253 c3 -5 42 -31 87 -58 44 -26 93 -56 107 -66
15 -9 35 -20 45 -23 9 -4 17 -10 17 -14 0 -5 10 -12 23 -16 12 -4 24 -9 27
-13 9 -11 72 -41 87 -41 42 0 -6 -42 -137 -121 -80 -48 -150 -92 -157 -98 -7
-6 -15 -11 -18 -11 -3 0 -18 -8 -33 -19 -71 -48 -152 -101 -157 -101 -10 0 6
141 21 194 8 27 14 78 14 113 0 36 5 74 11 86 7 11 14 60 17 109 4 76 7 88 23
88 10 0 20 -4 23 -9z m449 -359 c-3 -31 0 -100 6 -152 29 -246 32 -293 20
-304 -8 -8 -13 -8 -16 1 -2 7 -21 15 -41 19 -20 4 -46 13 -57 20 -11 8 -31 14
-45 14 -14 0 -34 7 -44 15 -11 8 -31 15 -45 15 -14 0 -35 7 -45 15 -11 8 -30
15 -42 15 -12 0 -35 7 -50 15 -16 8 -41 15 -56 15 -15 0 -29 4 -32 9 -4 5 -24
12 -47 16 -23 4 -38 12 -36 18 2 7 62 48 134 92 260 159 308 189 328 208 22
21 56 37 67 31 3 -2 4 -30 1 -62z m153 -9 c20 -15 49 -33 69 -43 11 -6 34 -19
50 -30 17 -11 39 -24 50 -30 11 -6 32 -18 46 -28 15 -9 45 -28 68 -41 47 -28
50 -38 19 -51 -33 -14 -210 -119 -218 -130 -3 -3 -12 -10 -20 -14 -31 -14 -57
-32 -74 -49 -22 -21 -52 -22 -60 -1 -3 9 -6 43 -7 77 0 60 -4 96 -30 294 -16
125 -12 133 48 89 27 -20 53 -39 59 -43z"/>
<path d="M4185 4343 c-16 -3 -34 -9 -39 -14 -6 -5 -26 -9 -45 -9 -20 0 -49 -7
-65 -15 -15 -8 -40 -15 -55 -15 -15 0 -36 -7 -47 -15 -10 -8 -32 -15 -47 -15
-15 0 -40 -6 -56 -14 -30 -16 -138 -133 -159 -172 -7 -13 -17 -24 -22 -24 -6
0 -10 -4 -10 -9 0 -9 -5 -16 -71 -94 -43 -51 -34 -70 28 -61 27 3 52 10 58 15
5 5 29 9 55 9 25 1 56 7 70 15 14 8 41 14 60 15 19 0 48 7 64 15 15 8 36 15
46 15 10 0 42 28 72 62 53 62 80 92 121 138 141 157 148 189 42 173z m5 -47
c0 -7 -23 -38 -51 -67 -28 -30 -86 -91 -127 -136 -45 -49 -84 -83 -95 -83 -17
0 -66 -14 -152 -42 -16 -5 -47 -13 -67 -18 -21 -4 -44 -13 -53 -20 -13 -11
-15 -9 -15 11 1 15 22 47 58 85 31 33 73 81 92 107 38 49 100 87 146 87 16 0
38 7 48 15 11 8 31 15 46 15 14 0 34 6 45 14 11 7 37 16 58 20 20 4 37 11 37
16 0 6 7 10 15 10 8 0 15 -6 15 -14z"/>
<path d="M4478 4323 c-37 -4 -38 -5 -109 -149 -40 -79 -76 -147 -80 -150 -5
-3 -9 -13 -9 -23 0 -10 -7 -24 -15 -31 -8 -7 -15 -21 -15 -30 0 -10 -4 -20 -8
-22 -5 -1 -28 -41 -51 -88 -43 -86 -53 -106 -71 -137 -6 -10 -13 -25 -16 -33
-3 -8 -9 -22 -14 -30 -10 -16 -43 -85 -54 -110 -4 -8 -16 -33 -29 -55 -20 -35
-21 -48 -15 -115 3 -41 7 -141 7 -221 1 -240 -3 -226 115 -320 56 -45 113 -91
128 -102 14 -12 36 -29 48 -37 12 -8 34 -25 48 -38 15 -12 45 -35 67 -50 22
-15 42 -29 45 -32 22 -24 129 -100 141 -100 8 0 39 24 69 53 30 28 83 76 118
105 34 30 79 70 100 89 20 19 77 72 126 117 49 44 98 90 109 100 19 19 20 27
14 284 l-6 265 -28 41 c-31 46 -47 72 -63 101 -13 24 -26 46 -61 100 -14 22
-29 47 -32 55 -4 8 -15 27 -25 41 -9 15 -30 50 -47 78 -16 28 -33 51 -37 51
-5 0 -8 6 -8 14 0 8 -6 21 -13 28 -7 7 -16 20 -20 28 -4 8 -16 29 -27 45 -11
17 -24 39 -30 50 -6 11 -19 34 -30 50 -11 17 -24 40 -30 53 -5 12 -14 22 -20
22 -5 0 -10 11 -10 25 0 14 -7 28 -15 31 -8 4 -15 13 -15 20 0 8 -12 19 -26
24 -25 10 -35 10 -106 3z m110 -72 c31 -35 39 -47 46 -69 4 -12 12 -22 17 -22
5 0 9 -9 9 -19 0 -11 5 -23 11 -26 5 -4 15 -17 20 -28 5 -12 18 -35 29 -52 11
-16 24 -39 30 -50 6 -11 19 -33 30 -50 11 -16 24 -39 30 -50 6 -11 19 -33 30
-50 11 -16 24 -40 30 -52 5 -13 14 -23 20 -23 5 0 10 -8 10 -18 0 -10 5 -23
11 -29 13 -13 33 -47 48 -80 6 -13 15 -23 21 -23 5 0 10 -8 10 -19 0 -10 7
-24 15 -31 8 -7 15 -18 15 -25 0 -7 7 -18 15 -25 20 -16 19 -26 -2 -34 -10 -3
-26 -10 -35 -16 -35 -20 -54 -30 -105 -55 -29 -15 -55 -30 -58 -36 -4 -5 -14
-9 -25 -9 -10 0 -20 -7 -24 -15 -3 -8 -14 -15 -24 -15 -11 0 -25 -7 -32 -15
-7 -8 -18 -15 -26 -15 -7 0 -19 -6 -26 -13 -7 -7 -20 -16 -28 -20 -26 -13 -57
-32 -72 -45 -12 -10 -24 -7 -59 13 -41 23 -50 28 -81 40 -7 3 -20 9 -28 13
-43 24 -83 42 -95 42 -7 0 -18 7 -25 15 -7 8 -23 15 -35 15 -12 0 -28 7 -35
15 -7 8 -23 15 -35 15 -12 0 -28 7 -35 15 -7 8 -20 15 -30 15 -10 0 -28 9 -41
19 -19 16 -22 22 -11 32 6 7 12 21 12 30 0 9 7 22 15 29 8 7 15 20 15 30 0 10
7 23 15 30 8 7 15 20 15 30 0 10 7 23 15 30 8 7 15 20 15 30 0 10 7 23 15 30
8 7 15 20 15 30 0 10 7 23 15 30 8 7 15 20 15 30 0 10 7 23 15 30 8 7 15 20
15 30 0 10 7 23 15 30 8 7 15 20 15 30 0 10 7 23 15 30 8 7 15 20 15 30 0 10
7 23 15 30 8 7 15 20 15 30 0 10 7 23 15 30 8 7 15 20 15 30 0 10 7 23 15 30
8 7 15 20 15 30 0 10 7 23 15 30 8 7 15 19 15 28 0 8 7 24 17 34 23 26 107 25
131 -1z m492 -1020 c0 -110 3 -206 6 -215 4 -9 0 -18 -9 -22 -15 -5 -39 4
-177 68 -36 16 -74 34 -85 38 -11 5 -36 15 -55 24 -81 35 -113 46 -131 46 -40
0 -16 26 54 60 39 19 77 39 82 43 6 5 35 21 65 37 132 69 157 82 185 100 65
41 65 42 65 -179z m-930 117 c36 -16 79 -35 95 -42 17 -7 59 -26 95 -43 110
-51 140 -63 155 -63 33 0 22 -21 -22 -40 -26 -11 -55 -24 -63 -29 -8 -4 -46
-25 -85 -46 -38 -21 -97 -52 -130 -69 -33 -17 -62 -34 -65 -37 -7 -8 -73 -40
-75 -37 -5 5 -11 438 -7 442 5 6 26 -1 102 -36z m396 -456 c3 -138 9 -274 13
-304 5 -29 8 -54 6 -56 -6 -7 -53 19 -80 45 -16 16 -59 51 -95 78 -86 66 -80
60 -125 100 -22 19 -46 35 -52 35 -7 0 -13 4 -13 9 0 5 -26 27 -59 48 -71 48
-69 51 49 111 128 64 185 95 188 104 2 4 9 8 16 8 6 0 35 15 63 34 51 33 75
46 81 41 2 -2 5 -115 8 -253z m122 224 c120 -62 152 -76 167 -76 8 0 15 -4 15
-10 0 -5 5 -10 11 -10 6 0 25 -6 42 -14 91 -41 127 -56 136 -56 6 0 11 -7 11
-15 0 -16 -11 -27 -87 -94 -137 -120 -197 -175 -266 -243 -43 -43 -80 -72 -82
-65 -2 6 -6 91 -9 187 -3 96 -10 229 -15 295 -8 111 -7 135 5 135 2 0 34 -15
72 -34z"/>
<path d="M4503 4178 c-6 -7 -13 -30 -17 -50 -4 -20 -13 -50 -21 -65 -8 -15
-15 -41 -15 -58 -1 -16 -7 -41 -15 -55 -8 -14 -15 -41 -15 -60 0 -19 -7 -46
-15 -60 -19 -33 -19 -121 0 -146 8 -10 15 -28 15 -40 0 -11 7 -29 15 -40 8
-10 15 -27 15 -37 0 -11 6 -31 14 -45 31 -60 56 -120 56 -134 0 -19 20 -38 41
-38 11 0 19 11 23 35 4 19 13 47 21 62 8 15 15 39 15 53 0 14 7 34 15 44 8 11
15 33 15 48 0 16 7 39 16 53 22 34 23 165 0 199 -9 14 -16 38 -16 54 0 16 -7
35 -15 42 -8 7 -15 25 -15 39 0 15 -7 36 -15 47 -8 10 -15 27 -15 37 0 11 -7
31 -15 45 -8 15 -19 39 -25 55 -10 29 -31 35 -47 15z m47 -108 c0 -17 7 -47
15 -67 8 -19 15 -45 15 -57 0 -11 7 -30 15 -40 8 -11 15 -31 15 -45 0 -14 7
-35 15 -45 19 -25 19 -95 1 -138 -20 -47 -37 -116 -43 -168 -3 -25 -9 -49 -13
-53 -15 -16 -48 12 -53 45 -5 37 -23 90 -43 130 -8 14 -14 33 -14 41 0 9 -8
29 -17 45 -17 29 -17 32 0 67 9 19 17 49 17 66 0 16 7 46 15 66 8 19 15 48 15
62 0 15 7 48 16 74 18 54 44 64 44 17z"/>
</g>
</svg>
